<svg version="1" xmlns="http://www.w3.org/2000/svg" width="933.333" height="933.333" viewBox="0 0 700.000000 700.000000"><path d="M340.5 85.7c-1.1.3-54 19.4-117.5 42.5-84 30.6-116.8 42.9-120.7 45.5-6.3 4.2-10.4 9.1-14.1 17l-2.7 5.8v266l3.2 6.8c6 12.7 1.7 10 129.9 79.9 64.3 35 118.7 64.1 120.9 64.7 5.1 1.4 15.9 1.4 21 0 2.2-.6 56.6-29.7 120.9-64.7 128.2-69.9 123.9-67.2 129.9-79.9l3.2-6.8v-266l-2.7-5.8c-3.7-7.9-7.8-12.8-14.1-17-3.9-2.6-37-15.1-121.2-45.8l-116-42.2-9-.3c-4.9-.2-9.9 0-11 .3zM461 165.6c59.6 21.8 109 39.9 109.8 40.3.8.5-5 3.1-15.5 6.8-9.2 3.4-58.4 21.3-109.3 39.9-50.9 18.5-93.5 33.9-94.6 34.1-1.3.3-39.8-13.2-92-32.2-49.5-18-99.2-36.1-110.7-40.3-11.4-4.1-20.5-7.7-20.2-8 1.3-1.3 221.2-80.9 222.5-80.5.8.2 50.3 18.2 110 39.9zm113.8 185.5l-.3 101.1-101 55c-55.5 30.3-101.6 55.3-102.2 55.5-1.7.7-1.9-238.2-.2-239.3 2.2-1.3 200.5-73.3 202.2-73.4 1.6 0 1.7 5.3 1.5 101.1z"/></svg>