<svg version="1" xmlns="http://www.w3.org/2000/svg" width="933.333" height="933.333" viewBox="0 0 700.000000 700.000000"><path d="M345 85.2c-6.6.9-11.1 2.4-75 25.8-6.3 2.3-17.1 6.2-24 8.7-6.9 2.4-13.4 4.8-14.5 5.3-1.1.5-8.5 3.2-16.5 6.1-8 2.8-17.9 6.4-22 7.9-9.2 3.4-30 10.9-44 16-44.4 16-46.4 16.9-53.4 24.3-4.9 5.3-9.6 15.1-10.4 21.9-.4 2.9-.7 62.2-.6 131.8.1 125.2.1 126.6 2.1 131.7 3.3 8.3 6.9 13.9 11.6 17.6 3.3 2.8 26.8 16.7 28.1 16.7.2 0 7.9 4.2 17.2 9.3 9.3 5.2 21.4 11.8 26.9 14.7 5.5 2.9 11.6 6.2 13.5 7.3 5.2 2.9 10.7 6 18 9.9 3.6 1.9 14.2 7.7 23.5 12.8 9.4 5.1 19.9 10.9 23.5 12.8 3.6 1.9 7.9 4.2 9.5 5.2 1.7 1 5.9 3.3 9.5 5.2 3.6 2 19.5 10.6 35.5 19.4 31.9 17.4 35.9 19.2 43.7 19.7 11.2.7 16.6-1.5 48.8-19.5 2.5-1.4 7.7-4.2 11.5-6.3 6.7-3.6 23.3-12.7 34.1-18.6 13.4-7.4 23.7-12.9 24.1-12.9.2 0 2-1 4.1-2.3 2-1.3 8.2-4.7 13.7-7.7 11.7-6.2 26.9-14.4 30.5-16.5 1.4-.8 20.9-11.5 43.4-23.7 41.9-22.9 46.5-25.9 51.9-34.6 1.4-2.2 3.4-6.6 4.3-9.8 1.6-5.5 1.8-15.2 1.7-132.4 0-69.6-.3-128.5-.6-130.9-1.1-7-6.1-16.6-11.4-21.8-5.6-5.5-11.2-8.5-24.8-13.3-3.3-1.1-6.9-2.4-8-2.9-1.1-.5-5.8-2.3-10.5-3.9-15.1-5.4-34.4-12.3-39.5-14.3-2.7-1-11.7-4.3-20-7.3-8.2-3-21.3-7.8-29-10.6-7.7-2.8-14.7-5.3-15.5-5.5-.8-.2-8.9-3.1-18-6.5s-18.5-6.8-21-7.6c-2.5-.8-5.4-1.9-6.5-2.4-1.1-.4-5.4-2-9.5-3.5s-9.3-3.4-11.5-4.2c-14.8-5.6-29.7-10.5-34-11.1-2.7-.4-7.5-.4-10.5 0zm45.7 54.9c21.3 7.8 43.8 15.9 49.8 18.1 6.1 2.2 12.6 4.6 14.5 5.3 4.1 1.6 9.7 3.6 63 22.9 47.1 17.1 54.1 19.8 53.7 20.3-.2.2-3.5 1.4-7.3 2.7-3.8 1.4-11.2 4-16.4 5.9-49.7 18-56.3 20.4-59.5 21.8-1.1.4-6 2.2-11 4-4.9 1.7-10.6 3.7-12.5 4.5-5.6 2-21 7.6-41 14.8-10.2 3.7-20.1 7.3-22 8.1-1.9.8-7.3 2.8-12 4.4-4.7 1.7-14.8 5.3-22.5 8.2-7.7 2.8-15 5.3-16.1 5.6-1.8.4-24.7-7.1-32.9-10.7-1.1-.5-15.3-5.7-31.5-11.6-27.8-10.1-36.5-13.2-60.5-21.8-5.5-2-10.9-4.1-12-4.7-1.2-.5-2.7-1.1-3.5-1.3-.8-.2-2.2-.6-3-.9-.8-.3-6.7-2.4-13-4.7-6.3-2.3-13.7-5-16.5-6-8.3-3.1-34.5-12.6-42.8-15.6-5-1.7-7.4-3-6.5-3.5.7-.4 22-8.2 47.3-17.4 25.3-9.1 49.4-17.9 53.5-19.5 4.1-1.5 16.5-6 27.5-10 11-3.9 20.9-7.5 22-8 1.1-.5 15.3-5.7 31.5-11.5s31.1-11.2 33-12c1.9-.8 4.5-1.4 5.7-1.4 1.2-.1 19.7 6.3 41 14zm183.9 211V452l-7.5 4.2c-4.2 2.2-9.8 5.3-12.6 6.8-10.9 6-26.4 14.5-33.5 18.3-4.1 2.2-10.1 5.5-13.3 7.4-3.2 1.8-6 3.3-6.2 3.3-.2 0-8.8 4.6-19.2 10.3-10.3 5.7-22.8 12.5-27.8 15.2-4.9 2.7-10.8 5.9-13 7.1-2.2 1.3-6.1 3.4-8.7 4.8-2.6 1.4-9.6 5.1-15.5 8.4-5.9 3.3-13.7 7.5-17.3 9.4-3.6 2-8.5 4.6-11 6-9.7 5.4-18 9.8-18.2 9.8-.2 0-.3-53.8-.3-119.6V323.7l3-1.3c1.7-.8 21.2-7.9 43.5-15.9s41.4-15 42.5-15.5c2.1-.8 9.6-3.6 27.5-10 14-5 54.2-19.6 60.5-22 20.1-7.5 26.1-9.6 26.5-9.2.3.2.5 45.8.6 101.3z"/></svg>